<?xml version="1.0" encoding="UTF-8"?><svg version="1.1" width="25px" height="25px" viewBox="0 0 25.0 25.0" xmlns="http://www.w3.org/2000/svg" xmlns:xlink="http://www.w3.org/1999/xlink"><defs><clipPath id="i0"><path d="M25,0 L25,25 L0,25 L0,0 L25,0 Z"></path></clipPath><clipPath id="i1"><path d="M12,0 C12.4901961,0 12.9803922,0.5 13.5098039,0.568627451 C14.0392157,0.637254902 14.6176471,0.274509804 15.1078431,0.401960784 C15.5980392,0.529411765 15.9411765,1.14705882 16.4117647,1.38235294 C16.8823529,1.61764706 17.5588235,1.38235294 18,1.64705882 C18.4411765,1.91176471 18.6176471,2.62745098 18.9803922,2.89215686 C19.3431373,3.15686275 20.0882353,3.19607843 20.4509804,3.55882353 C20.8137255,3.92156863 20.7941176,4.61764706 21.1078431,5.01960784 C21.4215686,5.42156863 22.0882353,5.58823529 22.3529412,6 C22.6176471,6.41176471 22.4215686,7.10784314 22.6176471,7.58823529 C22.8137255,8.06862745 23.4215686,8.39215686 23.5980392,8.89215686 C23.7745098,9.39215686 23.3627451,9.98039216 23.4313725,10.4901961 C23.5,11 24,11.5098039 24,12 C24,12.5196078 23.5,12.9803922 23.4313725,13.5098039 C23.3627451,14.0392157 23.7254902,14.6176471 23.5980392,15.1078431 C23.4705882,15.5980392 22.8529412,15.9411765 22.6176471,16.4117647 C22.3823529,16.8823529 22.6176471,17.5588235 22.3529412,18 C22.0882353,18.4411765 21.372549,18.6176471 21.1078431,18.9803922 C20.8431373,19.3431373 20.8039216,20.0882353 20.4411765,20.4509804 C20.0784314,20.8137255 19.3823529,20.7941176 18.9803922,21.1078431 C18.5784314,21.4215686 18.4117647,22.0882353 18,22.3529412 C17.5882353,22.6176471 16.8921569,22.4215686 16.4117647,22.6176471 C15.9313725,22.8137255 15.6078431,23.4215686 15.1078431,23.5980392 C14.6078431,23.7745098 14.0196078,23.3627451 13.5098039,23.4313725 C13,23.5 12.5294118,24 12,24 C11.4705882,24 11.0196078,23.5 10.4901961,23.4313725 C9.96078431,23.3627451 9.38235294,23.7254902 8.89215686,23.5980392 C8.40196078,23.4705882 8.05882353,22.8529412 7.58823529,22.6176471 C7.11764706,22.3823529 6.44117647,22.6176471 6,22.3529412 C5.55882353,22.0882353 5.38235294,21.372549 5.01960784,21.1078431 C4.65686275,20.8431373 3.91176471,20.8039216 3.54901961,20.4411765 C3.18627451,20.0784314 3.20588235,19.3823529 2.89215686,18.9803922 C2.57843137,18.5784314 1.91176471,18.4117647 1.64705882,18 C1.38235294,17.5882353 1.53921569,16.8921569 1.34313725,16.4117647 C1.14705882,15.9313725 0.539215686,15.6078431 0.362745098,15.1078431 C0.18627451,14.6078431 0.637254902,14.0196078 0.568627451,13.4705882 C0.5,12.9215686 0,12.4901961 0,12 C0,11.5098039 0.5,11.0196078 0.568627451,10.4901961 C0.637254902,9.96078431 0.274509804,9.38235294 0.401960784,8.89215686 C0.529411765,8.40196078 1.14705882,8.05882353 1.38235294,7.58823529 C1.61764706,7.11764706 1.38235294,6.44117647 1.64705882,6 C1.91176471,5.55882353 2.62745098,5.38235294 2.89215686,5.01960784 C3.15686275,4.65686275 3.19607843,3.91176471 3.55882353,3.54901961 C3.92156863,3.18627451 4.61764706,3.20588235 5.01960784,2.89215686 C5.42156863,2.57843137 5.58823529,1.91176471 6,1.64705882 C6.41176471,1.38235294 7.10784314,1.53921569 7.58823529,1.34313725 C8.06862745,1.14705882 8.39215686,0.539215686 8.89215686,0.362745098 C9.39215686,0.18627451 9.98039216,0.637254902 10.5294118,0.568627451 C11.0784314,0.5 11.5098039,0 12,0 Z"></path></clipPath><clipPath id="i2"><path d="M10.4509804,0 C16.2228975,0 20.9019608,4.6790633 20.9019608,10.4509804 C20.9019608,16.2228975 16.2228975,20.9019608 10.4509804,20.9019608 C4.6790633,20.9019608 0,16.2228975 0,10.4509804 C0,4.6790633 4.6790633,0 10.4509804,0 Z"></path></clipPath><clipPath id="i3"><path d="M10.2352941,0 C15.888091,0 20.4705882,4.58249727 20.4705882,10.2352941 C20.4705882,15.888091 15.888091,20.4705882 10.2352941,20.4705882 C4.58249727,20.4705882 0,15.888091 0,10.2352941 C0,4.58249727 4.58249727,0 10.2352941,0 Z"></path></clipPath><clipPath id="i4"><path d="M9.93137255,0 C15.4163182,0 19.8627451,4.44642695 19.8627451,9.93137255 C19.8627451,15.4163182 15.4163182,19.8627451 9.93137255,19.8627451 C4.44642695,19.8627451 0,15.4163182 0,9.93137255 C0,4.44642695 4.44642695,0 9.93137255,0 Z"></path></clipPath><clipPath id="i5"><path d="M9.11764706,0 C14.1531845,0 18.2352941,4.08210963 18.2352941,9.11764706 C18.2352941,14.1531845 14.1531845,18.2352941 9.11764706,18.2352941 C4.08210963,18.2352941 0,14.1531845 0,9.11764706 C0,4.08210963 4.08210963,0 9.11764706,0 Z"></path></clipPath><clipPath id="i6"><path d="M8.59803922,0 C13.3466052,0 17.1960784,3.84947328 17.1960784,8.59803922 C17.1960784,13.3466052 13.3466052,17.1960784 8.59803922,17.1960784 C3.84947328,17.1960784 0,13.3466052 0,8.59803922 C0,3.84947328 3.84947328,0 8.59803922,0 Z"></path></clipPath><clipPath id="i7"><path d="M7.79411765,0 C12.09869,0 15.5882353,3.48954533 15.5882353,7.79411765 C15.5882353,12.09869 12.09869,15.5882353 7.79411765,15.5882353 C3.48954533,15.5882353 0,12.09869 0,7.79411765 C0,3.48954533 3.48954533,0 7.79411765,0 Z"></path></clipPath><clipPath id="i8"><path d="M7.41176471,0 C11.5051693,0 14.8235294,3.31836009 14.8235294,7.41176471 C14.8235294,11.5051693 11.5051693,14.8235294 7.41176471,14.8235294 C3.31836009,14.8235294 0,11.5051693 0,7.41176471 C0,3.31836009 3.31836009,0 7.41176471,0 Z"></path></clipPath><clipPath id="i9"><path d="M6.62745098,0 C10.2876911,0 13.254902,2.96721087 13.254902,6.62745098 C13.254902,10.2876911 10.2876911,13.254902 6.62745098,13.254902 C2.96721087,13.254902 0,10.2876911 0,6.62745098 C0,2.96721087 2.96721087,0 6.62745098,0 Z"></path></clipPath><clipPath id="i10"><path d="M6.21568627,0 C6.49019608,0 6.73529412,0.264705882 7,0.294117647 C7.26470588,0.323529412 7.56862745,0.147058824 7.82352941,0.215686275 C8.07843137,0.284313725 8.25490196,0.598039216 8.5,0.696078431 C8.74509804,0.794117647 9.09803922,0.696078431 9.32352941,0.833333333 C9.54901961,0.970588235 9.6372549,1.31372549 9.85294118,1.48039216 C10.0686275,1.64705882 10.4215686,1.6372549 10.6078431,1.82352941 C10.7941176,2.00980392 10.7941176,2.37254902 10.9509804,2.57843137 C11.1078431,2.78431373 11.4607843,2.88235294 11.5980392,3.10784314 C11.7352941,3.33333333 11.5980392,3.68627451 11.7352941,3.93137255 C11.872549,4.17647059 12.1470588,4.35294118 12.2156863,4.60784314 C12.2843137,4.8627451 12.0980392,5.16666667 12.1372549,5.43137255 C12.1764706,5.69607843 12.4509804,5.96078431 12.4509804,6.23529412 C12.4509804,6.50980392 12.1862745,6.75490196 12.1568627,7.01960784 C12.127451,7.28431373 12.3039216,7.58823529 12.2352941,7.84313725 C12.1666667,8.09803922 11.8529412,8.2745098 11.754902,8.51960784 C11.6568627,8.76470588 11.754902,9.11764706 11.6176471,9.34313725 C11.4803922,9.56862745 11.1372549,9.65686275 10.9705882,9.87254902 C10.8039216,10.0882353 10.8137255,10.4411765 10.627451,10.627451 C10.4411765,10.8137255 10.0784314,10.8137255 9.87254902,10.9705882 C9.66666667,11.127451 9.56862745,11.4803922 9.34313725,11.6176471 C9.11764706,11.754902 8.76470588,11.6176471 8.51960784,11.754902 C8.2745098,11.8921569 8.09803922,12.1666667 7.84313725,12.2352941 C7.58823529,12.3039216 7.28431373,12.1176471 7.01960784,12.1568627 C6.75490196,12.1960784 6.50980392,12.4509804 6.23529412,12.4509804 C5.96078431,12.4509804 5.71568627,12.1862745 5.45098039,12.1568627 C5.18627451,12.127451 4.88235294,12.3039216 4.62745098,12.2352941 C4.37254902,12.1666667 4.19607843,11.8529412 3.95098039,11.754902 C3.70588235,11.6568627 3.35294118,11.754902 3.12745098,11.6176471 C2.90196078,11.4803922 2.81372549,11.1372549 2.59803922,10.9705882 C2.38235294,10.8039216 2.02941176,10.8137255 1.82352941,10.6470588 C1.73529412,10.5756303 1.68847539,10.4645858 1.651432,10.3447951 L1.58100383,10.1026982 C1.55562225,10.0242097 1.52521008,9.95098039 1.48039216,9.89215686 C1.32352941,9.68627451 0.970588235,9.58823529 0.833333333,9.3627451 C0.696078431,9.1372549 0.833333333,8.78431373 0.696078431,8.53921569 C0.558823529,8.29411765 0.284313725,8.11764706 0.215686275,7.8627451 C0.147058824,7.60784314 0.333333333,7.30392157 0.294117647,7.03921569 C0.254901961,6.7745098 0,6.52941176 0,6.25490196 C0,5.98039216 0.264705882,5.73529412 0.294117647,5.47058824 C0.323529412,5.20588235 0.147058824,4.90196078 0.215686275,4.64705882 C0.284313725,4.39215686 0.598039216,4.21568627 0.696078431,3.97058824 C0.794117647,3.7254902 0.696078431,3.37254902 0.833333333,3.14705882 C0.970588235,2.92156863 1.31372549,2.83333333 1.48039216,2.61764706 C1.64705882,2.40196078 1.65686275,2.02941176 1.82352941,1.82352941 C1.99019608,1.61764706 2.37254902,1.6372549 2.57843137,1.48039216 C2.78431373,1.32352941 2.88235294,0.970588235 3.10784314,0.833333333 C3.33333333,0.696078431 3.68627451,0.833333333 3.93137255,0.696078431 C4.17647059,0.558823529 4.35294118,0.284313725 4.60784314,0.215686275 C4.8627451,0.147058824 5.16666667,0.333333333 5.43137255,0.294117647 C5.69607843,0.254901961 5.94117647,0 6.21568627,0 Z"></path></clipPath><clipPath id="i11"><path d="M5.47058824,0 C8.49191069,0 10.9411765,2.44926578 10.9411765,5.47058824 C10.9411765,8.49191069 8.49191069,10.9411765 5.47058824,10.9411765 C2.44926578,10.9411765 0,8.49191069 0,5.47058824 C0,2.44926578 2.44926578,0 5.47058824,0 Z"></path></clipPath><clipPath id="i12"><path d="M4.88235294,0 C7.57880201,0 9.76470588,2.18590387 9.76470588,4.88235294 C9.76470588,7.57880201 7.57880201,9.76470588 4.88235294,9.76470588 C2.18590387,9.76470588 0,7.57880201 0,4.88235294 C0,2.18590387 2.18590387,0 4.88235294,0 Z"></path></clipPath><clipPath id="i13"><path d="M4.43137255,0 C6.87875203,0 8.8627451,1.98399307 8.8627451,4.43137255 C8.8627451,6.87875203 6.87875203,8.8627451 4.43137255,8.8627451 C1.98399307,8.8627451 0,6.87875203 0,4.43137255 C0,1.98399307 1.98399307,0 4.43137255,0 Z"></path></clipPath><clipPath id="i14"><path d="M4.75490196,0.0015066113 C5.20459282,-0.0150095186 5.64879894,0.104584435 6.02941176,0.344643866 L6.01960784,0.344643866 C6.58169824,0.77037977 6.90019681,1.44398593 6.87254902,2.14856543 C6.87254902,2.78582034 6.66666667,4.27601642 4.37254902,4.27601642 L4.37254902,5.36425171 C4.37254902,5.57013406 4.1372549,5.57013406 4.02941176,5.57013406 L0.352941176,5.57013406 C0.245098039,5.57013406 0,5.57013406 0,5.28582034 L0,0.383859552 C0.00251147186,0.278076681 0.0476639734,0.177797783 0.125202817,0.105797428 C0.202741661,0.0337970731 0.30608587,-0.00381383193 0.411764706,0.0015066113 Z M2.09803922,4.32503602 C2.05652551,4.31219746 2.01210194,4.31219746 1.97058824,4.32503602 C1.9301306,4.35238211 1.89381184,4.38539917 1.8627451,4.42307524 L1.65686275,4.64856543 L1.47058824,4.86425171 L1.42188235,4.9219772 C1.36352941,4.99758504 1.33529412,5.06817328 1.38235294,5.13876151 C1.40705987,5.15101958 1.43607739,5.15101958 1.46078431,5.13876151 L1.51336968,5.13106485 C1.54695491,5.1204709 1.57679056,5.0993544 1.59803922,5.07013406 C1.61764706,5.05052622 1.97058824,4.62895759 2.10784314,4.452487 L2.21446078,4.58974191 L2.31372549,4.72699681 C2.39340256,4.84772971 2.48187797,4.96242005 2.57843137,5.07013406 C2.59694651,5.09482091 2.62600419,5.10934975 2.65686275,5.10934975 C2.6877213,5.10934975 2.71677898,5.09482091 2.73529412,5.07013406 C2.72626902,5.05356027 2.71265223,5.03994347 2.69607843,5.03091838 L2.51960784,4.80542818 L2.3627451,4.59954583 L2.3627451,4.5407223 L2.24509804,4.38385955 C2.20653105,4.34444483 2.1531496,4.32309225 2.09803922,4.32503602 Z M2.10784314,3.24660465 C2.05973582,3.23323004 2.00889163,3.23323004 1.96078431,3.24660465 C1.92156863,3.27601642 1.41176471,3.83483994 1.16666667,4.10934975 L0.656862745,4.66817328 L0.450980392,4.89366347 C0.411764706,4.94595106 0.411764706,5.01784648 0.450980392,5.07013406 L0.549019608,5.07013406 L0.60395136,5.0673248 C0.639529731,5.05948127 0.672094593,5.04006751 0.696078431,5.01131053 C0.728336818,4.96583775 0.764415315,4.92319953 0.803921569,4.88385955 L1.30392157,4.26621249 L1.96078431,3.53091838 L2.08823529,3.39366347 L2.2254902,3.56033014 L2.57843137,4.01131053 C2.59880557,4.03289956 2.62717783,4.04513569 2.65686275,4.04513569 C2.68654766,4.04513569 2.71491992,4.03289956 2.73529412,4.01131053 C2.7570625,3.97734819 2.75302608,3.93294754 2.7254902,3.9034674 L2.49019608,3.58974191 L2.2254902,3.24660465 C2.18757832,3.23230365 2.14575502,3.23230365 2.10784314,3.24660465 Z M0.450980392,1.61177083 L0.411764706,1.61915367 L0.411764706,1.76621249 C0.491502199,1.88639141 0.58714188,1.99522277 0.696078431,2.08974191 L0.921568627,2.33483994 L1.07843137,2.53091838 C1.12745098,2.59954583 1.18627451,2.65836936 1.24509804,2.72699681 L1.2747451,2.76244779 C1.30705882,2.79601642 1.31176471,2.78189877 1.30392157,2.80542818 C1.29411765,2.83483994 1.15686275,3.00150661 1.15686275,3.00150661 L0.941176471,3.23680073 L0.549019608,3.6779772 L0.510901961,3.71585955 C0.457254902,3.76856543 0.396078431,3.82503602 0.37254902,3.82503602 C0.382882439,3.85576168 0.409231885,3.87834692 0.441176471,3.88385955 L0.475490196,3.89176399 L0.509803922,3.88385955 L0.705882353,3.65836936 L1.38235294,2.86425171 L1.42769608,2.82564877 C1.46078431,2.78520759 1.46078431,2.73925171 1.46078431,2.68778112 C1.44012117,2.64548526 1.40991563,2.60856737 1.37254902,2.57993798 L1.32352941,2.57993798 L1.26470588,2.52111445 L1.17647059,2.4034674 L1.07843137,2.28582034 C0.89441299,2.05324114 0.698052521,1.83069928 0.490196078,1.61915367 L0.450980392,1.61177083 Z M4.65686275,1.38385955 L4.48039216,1.38385955 C4.42083204,1.38385955 4.37254902,1.43214257 4.37254902,1.49170269 L4.37254902,2.84464387 C4.36976934,2.87229778 4.37885776,2.89983198 4.39755354,2.92039733 C4.41624932,2.94096269 4.44279532,2.95262635 4.47058824,2.95248824 L4.51960784,2.95248824 C5.3627451,2.95248824 5.45098039,2.4034674 5.45098039,2.12895759 C5.44873357,1.88302825 5.32834132,1.6531885 5.12745098,1.51131053 C4.98783251,1.42053436 4.82320892,1.37594881 4.65686275,1.38385955 Z M0.647058824,0.472094847 C0.610188859,0.452912658 0.566281729,0.452912658 0.529411765,0.472094847 C0.498023388,0.490189586 0.479173076,0.524120147 0.480392157,0.560330141 C0.461127836,0.593696924 0.461127836,0.634806495 0.480392157,0.668173278 C0.506813503,0.706467262 0.536323713,0.742535297 0.568627451,0.776016415 L0.568627451,0.825036023 C0.666666667,0.952487003 0.784313725,1.08974191 0.901960784,1.21719289 L1.06862745,1.41327132 C1.21568627,1.57013406 1.37254902,1.75640857 1.52941176,1.94268308 L1.80392157,2.19758504 L1.87254902,2.27601642 C1.91527224,2.33790164 1.97249244,2.38839005 2.03921569,2.42307524 L2.09803922,2.42307524 C2.16694879,2.42093736 2.23145376,2.38868487 2.2745098,2.33483994 L2.58823529,1.98189877 L2.63189338,1.93226642 C2.68014706,1.8844723 2.73529412,1.84219289 2.73529412,1.80542818 L2.71568627,1.80542818 C2.76470588,1.74660465 2.80392157,1.69758504 2.74509804,1.68778112 C2.71536799,1.65441383 2.67207791,1.6363763 2.62745098,1.63876151 L2.58406833,1.66261733 L2.54901961,1.69758504 L2.49019608,1.76621249 L2.42049632,1.84617573 C2.34191176,1.93716838 2.24264706,2.0529772 2.17647059,2.11915367 L2.11764706,2.18778112 L0.774509804,0.589741905 L0.746196078,0.558683082 C0.703529412,0.516016415 0.647058824,0.472094847 0.647058824,0.472094847 Z M1.48039216,0.485519522 L1.44117647,0.49170269 C1.42379767,0.508346102 1.4139701,0.531365221 1.4139701,0.55542818 C1.4139701,0.579491139 1.42379767,0.602510257 1.44117647,0.61915367 L1.52941176,0.717192886 L1.52941176,0.776016415 L1.70588235,0.893663474 L1.79289216,0.99170269 L1.87254902,1.08974191 L1.87254902,1.14856543 L2.00980392,1.24660465 C2.04837091,1.28601937 2.10175236,1.30737195 2.15686275,1.30542818 L2.20886537,1.2910742 C2.24193866,1.27729578 2.27133315,1.25537833 2.29411765,1.22699681 L2.53921569,0.952487003 C2.5781665,0.909176779 2.61419372,0.863323957 2.64705882,0.815232101 L2.73529412,0.707388964 L2.71568627,0.707388964 C2.78431373,0.628957592 2.83333333,0.550526219 2.71568627,0.521114454 L2.69317544,0.512941712 C2.67755991,0.510217465 2.66121443,0.512941712 2.64705882,0.521114454 C2.60784314,0.521114454 2.53921569,0.589741905 2.53921569,0.589741905 L2.47058824,0.6779772 L2.39215686,0.766212494 L2.2745098,0.893663474 L2.15686275,1.02111445 L2.09803922,1.07993798 L1.98039216,0.952487003 L1.92156863,0.883859552 L1.8627451,0.815232101 L1.68627451,0.599545827 L1.57843137,0.49170269 L1.51960784,0.49170269 C1.49411399,0.483458466 1.46667032,0.483458466 1.44117647,0.49170269 Z"></path></clipPath></defs><g clip-path="url(#i0)"><g transform="translate(0.5 0.5)"><g clip-path="url(#i1)"><polygon points="0,0 24,0 24,24 0,24 0,0" stroke="none" fill="#97D3CB"></polygon></g><g transform="translate(1.6078431372549034 1.4019607843137258)"><g clip-path="url(#i2)"><polygon points="0,0 20.9019608,0 20.9019608,20.9019608 0,20.9019608 0,0" stroke="none" fill="#09394C"></polygon></g></g><g transform="translate(1.8235294117647065 1.617647058823529)"><g clip-path="url(#i3)"><polygon points="0,0 20.4705882,0 20.4705882,20.4705882 0,20.4705882 0,0" stroke="none" fill="#257CB3"></polygon></g></g><g transform="translate(2.1274509803921564 1.921568627450979)"><g clip-path="url(#i4)"><polygon points="0,0 19.8627451,0 19.8627451,19.8627451 0,19.8627451 0,0" stroke="none" fill="#09394C"></polygon></g></g><g transform="translate(2.9411764705882355 2.735294117647058)"><g clip-path="url(#i5)"><polygon points="0,0 18.2352941,0 18.2352941,18.2352941 0,18.2352941 0,0" stroke="none" fill="#FF7C4A"></polygon></g></g><g transform="translate(3.4607843137254903 3.254901960784313)"><g clip-path="url(#i6)"><polygon points="0,0 17.1960784,0 17.1960784,17.1960784 0,17.1960784 0,0" stroke="none" fill="#EB419A"></polygon></g></g><g transform="translate(4.264705882352942 4.0588235294117645)"><g clip-path="url(#i7)"><polygon points="0,0 15.5882353,0 15.5882353,15.5882353 0,15.5882353 0,0" stroke="none" fill="#8258A5"></polygon></g></g><g transform="translate(4.647058823529413 4.4411764705882355)"><g clip-path="url(#i8)"><polygon points="0,0 14.8235294,0 14.8235294,14.8235294 0,14.8235294 0,0" stroke="none" fill="#0A3B52"></polygon></g></g><g transform="translate(5.43137254901961 5.225490196078431)"><g clip-path="url(#i9)"><polygon points="0,0 13.254902,0 13.254902,13.254902 0,13.254902 0,0" stroke="none" fill="#5ECC58"></polygon></g></g><g transform="translate(5.76470588235294 5.76470588235294)"><g clip-path="url(#i10)"><polygon points="0,0 12.4509804,0 12.4509804,12.4509804 0,12.4509804 0,0" stroke="none" fill="#36B069"></polygon></g></g><g transform="translate(5.76470588235294 5.76470588235294)"><path d="M12.4509804,6.23529412 C12.4509804,6.50980392 12.1862745,6.75490196 12.1568627,7.01960784 C12.127451,7.28431373 12.3039216,7.58823529 12.2352941,7.84313725 C12.1666667,8.09803922 11.8529412,8.2745098 11.754902,8.51960784 C11.6568627,8.76470588 11.754902,9.11764706 11.6176471,9.34313725 C11.4803922,9.56862745 11.1372549,9.65686275 10.9705882,9.87254902 C10.8039216,10.0882353 10.8137255,10.4411765 10.627451,10.627451 C10.4411765,10.8137255 10.0784314,10.8137255 9.87254902,10.9705882 C9.66666667,11.127451 9.56862745,11.4803922 9.34313725,11.6176471 C9.11764706,11.754902 8.76470588,11.6176471 8.51960784,11.754902 C8.2745098,11.8921569 8.09803922,12.1666667 7.84313725,12.2352941 C7.58823529,12.3039216 7.28431373,12.1176471 7.01960784,12.1568627 C6.75490196,12.1960784 6.50980392,12.4509804 6.23529412,12.4509804 C5.96078431,12.4509804 5.71568627,12.1862745 5.45098039,12.1568627 C5.18627451,12.127451 4.88235294,12.3039216 4.62745098,12.2352941 C4.37254902,12.1666667 4.19607843,11.8529412 3.95098039,11.754902 C3.70588235,11.6568627 3.35294118,11.754902 3.12745098,11.6176471 C2.90196078,11.4803922 2.81372549,11.1372549 2.59803922,10.9705882 C2.38235294,10.8039216 2.02941176,10.8137255 1.82352941,10.6470588 C1.61764706,10.4803922 1.6372549,10.0980392 1.48039216,9.89215686 C1.32352941,9.68627451 0.970588235,9.58823529 0.833333333,9.3627451 C0.696078431,9.1372549 0.833333333,8.78431373 0.696078431,8.53921569 C0.558823529,8.29411765 0.284313725,8.11764706 0.215686275,7.8627451 C0.147058824,7.60784314 0.333333333,7.30392157 0.294117647,7.03921569 C0.254901961,6.7745098 0,6.52941176 0,6.25490196 C0,5.98039216 0.264705882,5.73529412 0.294117647,5.47058824 C0.323529412,5.20588235 0.147058824,4.90196078 0.215686275,4.64705882 C0.284313725,4.39215686 0.598039216,4.21568627 0.696078431,3.97058824 C0.794117647,3.7254902 0.696078431,3.37254902 0.833333333,3.14705882 C0.970588235,2.92156863 1.31372549,2.83333333 1.48039216,2.61764706 C1.64705882,2.40196078 1.65686275,2.02941176 1.82352941,1.82352941 C1.99019608,1.61764706 2.37254902,1.6372549 2.57843137,1.48039216 C2.78431373,1.32352941 2.88235294,0.970588235 3.10784314,0.833333333 C3.33333333,0.696078431 3.68627451,0.833333333 3.93137255,0.696078431 C4.17647059,0.558823529 4.35294118,0.284313725 4.60784314,0.215686275 C4.8627451,0.147058824 5.16666667,0.333333333 5.43137255,0.294117647 C5.69607843,0.254901961 5.94117647,0 6.21568627,0 C6.49019608,0 6.73529412,0.264705882 7,0.294117647 C7.26470588,0.323529412 7.56862745,0.147058824 7.82352941,0.215686275 C8.07843137,0.284313725 8.25490196,0.598039216 8.5,0.696078431 C8.74509804,0.794117647 9.09803922,0.696078431 9.32352941,0.833333333 C9.54901961,0.970588235 9.6372549,1.31372549 9.85294118,1.48039216 C10.0686275,1.64705882 10.4215686,1.6372549 10.6078431,1.82352941 C10.7941176,2.00980392 10.7941176,2.37254902 10.9509804,2.57843137 C11.1078431,2.78431373 11.4607843,2.88235294 11.5980392,3.10784314 C11.7352941,3.33333333 11.5980392,3.68627451 11.7352941,3.93137255 C11.872549,4.17647059 12.1470588,4.35294118 12.2156863,4.60784314 C12.2843137,4.8627451 12.0980392,5.16666667 12.1372549,5.43137255 C12.1764706,5.69607843 12.4509804,5.96078431 12.4509804,6.23529412 Z" stroke="#FFFFFF" stroke-width="0.06" fill="none" stroke-miterlimit="10"></path></g><g transform="translate(6.5882352941176485 6.382352941176471)"><g clip-path="url(#i11)"><polygon points="0,0 10.9411765,0 10.9411765,10.9411765 0,10.9411765 0,0" stroke="none" fill="#9AD6BD"></polygon></g></g><g transform="translate(7.1764705882352935 6.970588235294116)"><g clip-path="url(#i12)"><polygon points="0,0 9.76470588,0 9.76470588,9.76470588 0,9.76470588 0,0" stroke="none" fill="#EE593F"></polygon></g></g><g transform="translate(7.627450980392156 7.4215686274509824)"><g clip-path="url(#i13)"><polygon points="0,0 8.8627451,0 8.8627451,8.8627451 0,8.8627451 0,0" stroke="none" fill="#FFA63B"></polygon></g></g><g transform="translate(9.0 9.380846329872643)"><g clip-path="url(#i14)"><polygon points="0,0 6.87421185,0 6.87421185,5.57013406 0,5.57013406 0,0" stroke="none" fill="#412C14"></polygon></g></g></g></g></svg>